<svg width="502.025px" height="110.24000549316406px" xmlns="http://www.w3.org/2000/svg" viewBox="-1.0124999999999886 19.87999725341797 502.025 110.24000549316406" style="background: rgba(242, 237, 219, 0); --darkreader-inline-bgimage: initial; --darkreader-inline-bgcolor: var(--darkreader-background-f2eddb00, rgba(44, 38, 16, 0));" data-darkreader-inline-bgimage="" data-darkreader-inline-bgcolor="" preserveAspectRatio="xMidYMid"><defs><filter id="editing-vintage" x="-100%" y="-100%" width="300%" height="300%"><feConvolveMatrix in="SourceGraphic" result="extrude" order="9,9" divisor="1" kernelMatrix="1,0,0,0,0,0,0,0,0,0,1,0,0,0,0,0,0,0,0,0,1,0,0,0,0,0,0,0,0,0,1,0,0,0,0,0,0,0,0,0,1,0,0,0,0,0,0,0,0,0,1,0,0,0,0,0,0,0,0,0,1,0,0,0,0,0,0,0,0,0,1,0,0,0,0,0,0,0,0,0,1"> </feConvolveMatrix><feFlood flood-color="#900" result="flood-extrude"></feFlood><feComposite operator="in" in="flood-extrude" in2="extrude" result="extrude-color"></feComposite><feOffset dx="5" dy="5" in="extrude-color" result="extrude-offset"></feOffset><feColorMatrix in="SourceGraphic" result="stroke" type="matrix" values="0 0 0 0 0 0 0 0 0 0 0 0 0 0 0 0 1 0 0 0 "></feColorMatrix><feColorMatrix in="SourceGraphic" result="fill" type="matrix" values="0 0 0 0 0 0 0 0 0 0 0 0 0 0 0 1 0 0 1 0 "></feColorMatrix><feConvolveMatrix in="stroke" result="inner-shadow" order="5,5" divisor="1" kernelMatrix="1 0 0 0 0 0 1 0 0 0 0 0 1 0 0 0 0 0 1 0 0 0 0 0 1 "></feConvolveMatrix><feOffset dx="1" dy="1" in="inner-shadow" result="offset"></feOffset><feComposite operator="in" in="offset" in2="SourceAlpha" result="comp"></feComposite><feFlood flood-color="#000" result="flood3"></feFlood><feComposite operator="in" in="flood3" in2="comp" result="comp2"></feComposite><feColorMatrix in="comp2" result="comp3" type="matrix" values="1 0 0 0 0 0 1 0 0 0 0 0 1 0 0 0 0 0 0.5 0 "></feColorMatrix><feFlood flood-color="#f00" result="flood1"></feFlood><feComposite operator="in" in="flood1" in2="fill" result="fill2"></feComposite><feFlood flood-color="#fff" result="flood2"></feFlood><feComposite operator="in" in="flood2" in2="stroke" result="stroke2"></feComposite><feMerge result="obj"><feMergeNode in="extrude-offset"></feMergeNode><feMergeNode in="fill2"></feMergeNode><feMergeNode in="comp3"></feMergeNode></feMerge><feConvolveMatrix in="SourceAlpha" result="shadow" order="9,9" divisor="1" kernelMatrix="1,0,0,0,0,0,0,0,0,0,1,0,0,0,0,0,0,0,0,0,1,0,0,0,0,0,0,0,0,0,1,0,0,0,0,0,0,0,0,0,1,0,0,0,0,0,0,0,0,0,1,0,0,0,0,0,0,0,0,0,1,0,0,0,0,0,0,0,0,0,1,0,0,0,0,0,0,0,0,0,1"></feConvolveMatrix><feOffset dx="15" dy="15" in="shadow" result="shadow-offset"></feOffset><feFlood flood-color="#444444" result="flood-shadow"></feFlood><feComposite operator="in" in="flood-shadow" in2="shadow-offset" result="shadow-color"></feComposite><feMerge><feMergeNode in="shadow-color"></feMergeNode><feMergeNode in="obj"></feMergeNode></feMerge></filter></defs><g transform="translate(-9,-9)"><g filter="url(#editing-vintage)"><g transform="translate(71.56000900268555, 96.3750057220459)"><path d="M5.53-27.76L5.53-27.76L5.53-27.76Q3.59-29.24 3.59-32.40L3.59-32.40L3.59-32.40Q3.59-35.57 5.67-37.22L5.67-37.22L5.67-37.22Q7.75-38.87 11.34-38.87L11.34-38.87L11.34-38.87Q13.62-38.87 19.04-38.08L19.04-38.08L22.91-37.51L22.91-37.51Q24.85-37.28 26.88-37.28L26.88-37.28L26.88-37.28Q28.90-37.28 30.27-38.13L30.27-38.13L30.27-38.13Q32.32-36.31 32.32-33.69L32.32-33.69L32.32-33.69Q32.32-31.07 29.98-29.18L29.98-29.18L29.98-29.18Q27.59-27.19 24.51-27.19L24.51-27.19L24.51-27.19Q23.03-27.19 20.63-27.59L20.63-27.59L20.63-27.59Q17.84-18.81 17.84-12.71L17.84-12.71L17.84-12.71Q17.84-6.61 20.92-3.42L20.92-3.42L20.92-3.42Q19.49-0.85 17.39 0.14L17.39 0.14L17.39 0.14Q15.28 1.14 12.11 1.14L12.11 1.14L12.11 1.14Q8.95 1.14 6.98-0.60L6.98-0.60L6.98-0.60Q5.02-2.34 5.02-5.93L5.02-5.93L5.02-5.93Q5.02-10.09 7.30-16.93L7.30-16.93L7.30-16.93Q9.58-23.71 13.00-28.90L13.00-28.90L13.00-28.90Q11.34-29.07 9.63-29.07L9.63-29.07L9.63-29.07Q6.10-29.07 5.53-27.76ZM47.99-16.02L47.99-16.02L47.99-16.02Q50.05-19.66 50.05-23.37L50.05-23.37L50.05-23.37Q50.05-25.82 48.28-25.82L48.28-25.82L48.28-25.82Q46.91-25.82 45.49-23.48L45.49-23.48L45.49-23.48Q44.00-21.15 43.55-18.13L43.55-18.13L40.58 0L28.79 1.14L34.60-29.07L44.00-30.21L42.98-24.45L42.98-24.45Q45.77-30.21 52.04-30.21L52.04-30.21L52.04-30.21Q55.35-30.21 57.14-28.50L57.14-28.50L57.14-28.50Q58.94-26.79 58.94-23.28L58.94-23.28L58.94-23.28Q58.94-19.78 56.63-17.56L56.63-17.56L56.63-17.56Q54.32-15.33 50.39-15.33L50.39-15.33L50.39-15.33Q48.68-15.33 47.99-16.02ZM62.33-1.71L62.33-1.71L62.33-1.71Q60.99-3.19 60.39-5.53L60.39-5.53L60.39-5.53Q59.79-7.87 59.79-11.69L59.79-11.69L59.79-11.69Q59.79-15.50 61.10-18.98L61.10-18.98L61.10-18.98Q62.41-22.46 64.81-24.97L64.81-24.97L64.81-24.97Q69.71-30.21 77.81-30.21L77.81-30.21L77.81-30.21Q80.71-30.21 82.82-29.24L82.82-29.24L92.57-30.21L88.35-7.98L88.35-7.98Q88.18-7.30 88.18-6.04L88.18-6.04L88.18-6.04Q88.18-4.79 88.95-3.99L88.95-3.99L88.95-3.99Q89.72-3.19 90.86-3.08L90.86-3.08L90.86-3.08Q90.29-1.14 88.21 0L88.21 0L88.21 0Q86.13 1.14 83.79 1.14L83.79 1.14L83.79 1.14Q81.45 1.14 79.89 0.26L79.89 0.26L79.89 0.26Q78.32-0.63 77.86-2.11L77.86-2.11L77.86-2.11Q76.95-0.68 75.01 0.23L75.01 0.23L75.01 0.23Q73.07 1.14 70.48 1.14L70.48 1.14L70.48 1.14Q67.89 1.14 65.78 0.46L65.78 0.46L65.78 0.46Q63.67-0.23 62.33-1.71ZM74.36-24.85L74.36-24.85L74.36-24.85Q73.70-23.83 73.13-22.09L73.13-22.09L73.13-22.09Q72.56-20.35 71.62-15.70L71.62-15.70L71.62-15.70Q70.68-11.06 70.68-7.75L70.68-7.75L70.68-7.75Q70.68-4.45 71.19-3.48L71.19-3.48L71.19-3.48Q71.71-2.51 72.62-2.51L72.62-2.51L72.62-2.51Q74.44-2.51 75.78-4.25L75.78-4.25L75.78-4.25Q77.12-5.99 77.63-9.06L77.63-9.06L80.66-25.76L80.66-25.76Q79.46-26.79 78.06-26.79L78.06-26.79L78.06-26.79Q76.66-26.79 75.84-26.33L75.84-26.33L75.84-26.33Q75.01-25.88 74.36-24.85ZM117.88-33.06L117.88-33.06L117.88-33.06Q118.67-34.43 118.67-35.91L118.67-35.91L118.67-35.91Q118.67-38.53 117.08-38.53L117.08-38.53L117.08-38.53Q114.63-38.53 113.60-33.52L113.60-33.52L112.75-29.07L117.93-29.07L117.59-26.51L112.23-26.51L107.10 0L95.59 1.14L101.06-26.51L97.01-26.51L97.53-29.07L101.52-29.07L102.71-33.57L102.71-33.57Q103.74-37.73 108.13-39.67L108.13-39.67L108.13-39.67Q111.32-41.04 116.68-41.04L116.68-41.04L116.68-41.04Q122.04-41.04 124.43-39.67L124.43-39.67L124.43-39.67Q126.82-38.30 126.82-36.48L126.82-36.48L126.82-36.48Q126.82-34.66 125.40-33.52L125.40-33.52L125.40-33.52Q123.97-32.38 122.38-32.38L122.38-32.38L122.38-32.38Q119.24-32.38 117.88-33.06ZM139.65-33.06L139.65-33.06L139.65-33.06Q140.45-34.43 140.45-35.91L140.45-35.91L140.45-35.91Q140.45-38.53 138.85-38.53L138.85-38.53L138.85-38.53Q136.40-38.53 135.38-33.52L135.38-33.52L134.52-29.07L139.71-29.07L139.37-26.51L134.01-26.51L128.88 0L117.36 1.14L122.83-26.51L118.79-26.51L119.30-29.07L123.29-29.07L124.49-33.57L124.49-33.57Q125.51-37.73 129.90-39.67L129.90-39.67L129.90-39.67Q133.09-41.04 138.45-41.04L138.45-41.04L138.45-41.04Q143.81-41.04 146.20-39.67L146.20-39.67L146.20-39.67Q148.60-38.30 148.60-36.48L148.60-36.48L148.60-36.48Q148.60-34.66 147.17-33.52L147.17-33.52L147.17-33.52Q145.75-32.38 144.15-32.38L144.15-32.38L144.15-32.38Q141.02-32.38 139.65-33.06ZM157.78-3.14L157.78-3.14L157.78-3.14Q156.01 1.14 150.37 1.14L150.37 1.14L150.37 1.14Q147.46 1.14 145.63-0.85L145.63-0.85L145.63-0.85Q144.10-2.62 144.10-4.39L144.10-4.39L144.10-4.39Q144.10-9.01 146.20-18.01L146.20-18.01L148.31-29.07L159.88-30.21L156.41-12.20L156.41-12.20Q155.44-7.98 155.44-6.50L155.44-6.50L155.44-6.50Q155.44-3.25 157.78-3.14ZM149.34-36.99L149.34-36.99L149.34-36.99Q149.34-39.22 151.19-40.41L151.19-40.41L151.19-40.41Q153.04-41.61 155.72-41.61L155.72-41.61L155.72-41.61Q158.40-41.61 160.03-40.41L160.03-40.41L160.03-40.41Q161.65-39.22 161.65-36.99L161.65-36.99L161.65-36.99Q161.65-34.77 159.86-33.63L159.86-33.63L159.86-33.63Q158.06-32.49 155.38-32.49L155.38-32.49L155.38-32.49Q152.70-32.49 151.02-33.63L151.02-33.63L151.02-33.63Q149.34-34.77 149.34-36.99ZM190.61-23.71L190.61-23.71L190.61-23.71Q190.61-21.32 188.61-19.84L188.61-19.84L188.61-19.84Q186.62-18.35 183.37-18.35L183.37-18.35L183.37-18.35Q182.00-18.35 181.20-18.75L181.20-18.75L181.20-18.75Q181.83-20.23 182.03-22.09L182.03-22.09L182.03-22.09Q182.23-23.94 182.23-24.45L182.23-24.45L182.23-24.45Q182.23-26.85 180.58-26.85L180.58-26.85L180.58-26.85Q179.44-26.85 178.15-25.42L178.15-25.42L178.15-25.42Q176.87-24.00 175.79-21.77L175.79-21.77L175.79-21.77Q173.39-16.64 173.39-11.46L173.39-11.46L173.39-11.46Q173.39-8.61 174.48-7.32L174.48-7.32L174.48-7.32Q175.56-6.04 177.95-6.04L177.95-6.04L177.95-6.04Q181.26-6.04 183.88-8.78L183.88-8.78L183.88-8.78Q184.62-9.63 185.02-10.60L185.02-10.60L185.02-10.60Q187.19-9.46 187.19-6.33L187.19-6.33L187.19-6.33Q187.19-3.14 183.65-1.03L183.65-1.03L183.65-1.03Q180.01 1.14 174.19 1.14L174.19 1.14L174.19 1.14Q162.62 1.14 162.62-11.12L162.62-11.12L162.62-11.12Q162.62-20.06 167.69-25.19L167.69-25.19L167.69-25.19Q172.60-30.21 181.60-30.21L181.60-30.21L181.60-30.21Q190.61-30.21 190.61-23.71ZM215.57 0L203.38 0L210.33-37.45L210.33-37.45Q215.97-38.08 224.21-38.08L224.21-38.08L224.21-38.08Q232.45-38.08 236.26-35.68L236.26-35.68L236.26-35.68Q240.08-33.29 240.08-28.47L240.08-28.47L240.08-28.47Q240.08-23.66 237.60-20.63L237.60-20.63L237.60-20.63Q235.13-17.61 230.85-16.64L230.85-16.64L230.85-16.64Q231.82-11.91 234.04-8.09L234.04-8.09L234.04-8.09Q236.09-4.50 238.49-3.36L238.49-3.36L238.49-3.36Q237.63-0.97 235.89 0.09L235.89 0.09L235.89 0.09Q234.16 1.14 231.68 1.14L231.68 1.14L231.68 1.14Q229.20 1.14 227.26-0.31L227.26-0.31L227.26-0.31Q225.32-1.77 223.78-4.45L223.78-4.45L223.78-4.45Q220.53-10.26 220.19-19.44L220.19-19.44L220.59-19.44L220.59-19.44Q224.81-19.55 226.92-21.75L226.92-21.75L226.92-21.75Q229.03-23.94 229.03-28.56L229.03-28.56L229.03-28.56Q229.03-34.31 224.18-34.54L224.18-34.54L222.93-34.54L222.93-34.54Q222.41-34.54 222.13-34.48L222.13-34.48L215.57 0ZM261.00-2.39L261.00-2.39L261.00-2.39Q258.27 1.14 251.48 1.14L251.48 1.14L251.48 1.14Q247.95 1.14 245.38-1.00L245.38-1.00L245.38-1.00Q242.82-3.14 242.82-6.21L242.82-6.21L242.82-6.21Q242.82-7.92 242.99-8.78L242.99-8.78L246.81-29.07L258.38-30.21L254.22-8.21L254.22-8.21Q253.99-6.95 253.99-6.21L253.99-6.21L253.99-6.21Q253.99-2.91 255.99-2.91L255.99-2.91L255.99-2.91Q258.21-2.91 259.81-5.93L259.81-5.93L259.81-5.93Q260.32-6.90 260.55-8.15L260.55-8.15L264.59-29.07L275.82-30.21L271.61-7.98L271.61-7.98Q271.43-7.13 271.43-6.21L271.43-6.21L271.43-6.21Q271.43-5.30 271.95-4.30L271.95-4.30L271.95-4.30Q272.46-3.31 274.11-3.08L274.11-3.08L274.11-3.08Q273.77-1.71 272.57-0.80L272.57-0.80L272.57-0.80Q270.07 1.14 267.36 1.14L267.36 1.14L267.36 1.14Q264.65 1.14 263.06 0.17L263.06 0.17L263.06 0.17Q261.46-0.80 261.00-2.39ZM292.52-3.14L292.52-3.14L292.52-3.14Q290.76 1.14 285.11 1.14L285.11 1.14L285.11 1.14Q282.26 1.14 280.44-0.85L280.44-0.85L280.44-0.85Q278.96-2.51 278.96-4.39L278.96-4.39L278.96-4.39Q278.96-8.66 280.95-18.01L280.95-18.01L285.11-39.90L296.69-41.04L291.16-12.20L291.16-12.20Q290.19-7.98 290.19-6.50L290.19-6.50L290.19-6.50Q290.19-3.25 292.52-3.14ZM320.45-9.63L320.45-9.63L320.45-9.63Q321.88-8.66 321.88-6.53L321.88-6.53L321.88-6.53Q321.88-4.39 320.80-3.02L320.80-3.02L320.80-3.02Q319.71-1.65 317.95-0.74L317.95-0.74L317.95-0.74Q314.30 1.14 310.37 1.14L310.37 1.14L310.37 1.14Q306.43 1.14 304.12 0.29L304.12 0.29L304.12 0.29Q301.82-0.57 300.28-2.17L300.28-2.17L300.28-2.17Q297.26-5.19 297.26-10.72L297.26-10.72L297.26-10.72Q297.26-19.32 301.93-24.57L301.93-24.57L301.93-24.57Q306.95-30.21 315.67-30.21L315.67-30.21L315.67-30.21Q321.08-30.21 323.76-27.93L323.76-27.93L323.76-27.93Q325.76-26.22 325.76-23.43L325.76-23.43L325.76-23.43Q325.76-13.40 308.43-13.40L308.43-13.40L308.43-13.40Q308.20-11.91 308.20-10.66L308.20-10.66L308.20-10.66Q308.20-8.04 309.37-7.04L309.37-7.04L309.37-7.04Q310.54-6.04 312.70-6.04L312.70-6.04L312.70-6.04Q314.87-6.04 317.18-7.04L317.18-7.04L317.18-7.04Q319.49-8.04 320.45-9.63ZM308.83-15.85L308.83-15.85L308.83-15.85Q312.87-15.85 315.21-18.35L315.21-18.35L315.21-18.35Q317.55-20.75 317.55-24.57L317.55-24.57L317.55-24.57Q317.55-25.88 317.06-26.59L317.06-26.59L317.06-26.59Q316.58-27.30 315.61-27.30L315.61-27.30L315.61-27.30Q314.64-27.30 313.81-26.93L313.81-26.93L313.81-26.93Q312.99-26.56 312.13-25.31L312.13-25.31L312.13-25.31Q310.02-22.46 308.83-15.85ZM344.74-20.01L344.74-20.01L344.74-20.01Q345.53-22.12 345.53-23.94L345.53-23.94L345.53-23.94Q345.53-27.30 342.80-27.30L342.80-27.30L342.80-27.30Q341.37-27.30 340.20-26.02L340.20-26.02L340.20-26.02Q339.04-24.74 339.04-23.14L339.04-23.14L339.04-23.14Q339.04-22.00 339.95-21.09L339.95-21.09L339.95-21.09Q341.26-19.84 344.62-17.78L344.62-17.78L344.62-17.78Q347.99-15.73 349.27-14.05L349.27-14.05L349.27-14.05Q350.55-12.37 350.55-10.06L350.55-10.06L350.55-10.06Q350.55-7.75 349.44-5.64L349.44-5.64L349.44-5.64Q348.33-3.53 346.33-2.05L346.33-2.05L346.33-2.05Q342.06 1.14 335.22 1.14L335.22 1.14L335.22 1.14Q331.51 1.14 328.66-0.80L328.66-0.80L328.66-0.80Q325.81-2.68 325.81-4.90L325.81-4.90L325.81-4.90Q325.81-7.13 327.44-8.44L327.44-8.44L327.44-8.44Q329.06-9.75 331.46-9.75L331.46-9.75L331.46-9.75Q333.85-9.75 335.33-8.84L335.33-8.84L335.33-8.84Q334.59-6.95 334.59-5.70L334.59-5.70L334.59-5.70Q334.59-1.94 337.78-1.94L337.78-1.94L337.78-1.94Q339.15-1.94 340.06-2.79L340.06-2.79L340.06-2.79Q340.97-3.65 340.97-5.13L340.97-5.13L340.97-5.13Q340.97-8.04 336.07-11.12L336.07-11.12L336.07-11.12Q332.08-13.74 331.17-14.76L331.17-14.76L331.17-14.76Q329.63-16.59 329.63-18.87L329.63-18.87L329.63-18.87Q329.63-21.15 330.71-23.31L330.71-23.31L330.71-23.31Q331.80-25.48 333.79-27.02L333.79-27.02L333.79-27.02Q337.95-30.21 345.19-30.21L345.19-30.21L345.19-30.21Q348.90-30.21 351.09-28.73L351.09-28.73L351.09-28.73Q353.29-27.25 353.29-24.74L353.29-24.74L353.29-24.74Q353.29-22.23 351.78-20.80L351.78-20.80L351.78-20.80Q350.27-19.38 347.53-19.38L347.53-19.38L347.53-19.38Q345.65-19.38 344.74-20.01Z" fill="#f00" stroke="#0f0" stroke-width="1.8" data-darkreader-inline-fill="" data-darkreader-inline-stroke="" style="--darkreader-inline-fill: var(--darkreader-background-ff0000, #cc0000); --darkreader-inline-stroke: var(--darkreader-text-00ff00, #1aff1a);"></path></g></g><g><g transform="translate(71.56000137329102, 96.3749942779541)"><path d="M5.53-27.76L5.53-27.76L5.53-27.76Q3.59-29.24 3.59-32.40L3.59-32.40L3.59-32.40Q3.59-35.57 5.67-37.22L5.67-37.22L5.67-37.22Q7.75-38.87 11.34-38.87L11.34-38.87L11.34-38.87Q13.62-38.87 19.04-38.08L19.04-38.08L22.91-37.51L22.91-37.51Q24.85-37.28 26.88-37.28L26.88-37.28L26.88-37.28Q28.90-37.28 30.27-38.13L30.27-38.13L30.27-38.13Q32.32-36.31 32.32-33.69L32.32-33.69L32.32-33.69Q32.32-31.07 29.98-29.18L29.98-29.18L29.98-29.18Q27.59-27.19 24.51-27.19L24.51-27.19L24.51-27.19Q23.03-27.19 20.63-27.59L20.63-27.59L20.63-27.59Q17.84-18.81 17.84-12.71L17.84-12.71L17.84-12.71Q17.84-6.61 20.92-3.42L20.92-3.42L20.92-3.42Q19.49-0.85 17.39 0.14L17.39 0.14L17.39 0.14Q15.28 1.14 12.11 1.14L12.11 1.14L12.11 1.14Q8.95 1.14 6.98-0.60L6.98-0.60L6.98-0.60Q5.02-2.34 5.02-5.93L5.02-5.93L5.02-5.93Q5.02-10.09 7.30-16.93L7.30-16.93L7.30-16.93Q9.58-23.71 13.00-28.90L13.00-28.90L13.00-28.90Q11.34-29.07 9.63-29.07L9.63-29.07L9.63-29.07Q6.10-29.07 5.53-27.76ZM47.99-16.02L47.99-16.02L47.99-16.02Q50.05-19.66 50.05-23.37L50.05-23.37L50.05-23.37Q50.05-25.82 48.28-25.82L48.28-25.82L48.28-25.82Q46.91-25.82 45.49-23.48L45.49-23.48L45.49-23.48Q44.00-21.15 43.55-18.13L43.55-18.13L40.58 0L28.79 1.14L34.60-29.07L44.00-30.21L42.98-24.45L42.98-24.45Q45.77-30.21 52.04-30.21L52.04-30.21L52.04-30.21Q55.35-30.21 57.14-28.50L57.14-28.50L57.14-28.50Q58.94-26.79 58.94-23.28L58.94-23.28L58.94-23.28Q58.94-19.78 56.63-17.56L56.63-17.56L56.63-17.56Q54.32-15.33 50.39-15.33L50.39-15.33L50.39-15.33Q48.68-15.33 47.99-16.02ZM62.33-1.71L62.33-1.71L62.33-1.71Q60.99-3.19 60.39-5.53L60.39-5.53L60.39-5.53Q59.79-7.87 59.79-11.69L59.79-11.69L59.79-11.69Q59.79-15.50 61.10-18.98L61.10-18.98L61.10-18.98Q62.41-22.46 64.81-24.97L64.81-24.97L64.81-24.97Q69.71-30.21 77.81-30.21L77.81-30.21L77.81-30.21Q80.71-30.21 82.82-29.24L82.82-29.24L92.57-30.21L88.35-7.98L88.35-7.98Q88.18-7.30 88.18-6.04L88.18-6.04L88.18-6.04Q88.18-4.79 88.95-3.99L88.95-3.99L88.95-3.99Q89.72-3.19 90.86-3.08L90.86-3.08L90.86-3.08Q90.29-1.14 88.21 0L88.21 0L88.21 0Q86.13 1.14 83.79 1.14L83.79 1.14L83.79 1.14Q81.45 1.14 79.89 0.26L79.89 0.26L79.89 0.26Q78.32-0.63 77.86-2.11L77.86-2.11L77.86-2.11Q76.95-0.68 75.01 0.23L75.01 0.23L75.01 0.23Q73.07 1.14 70.48 1.14L70.48 1.14L70.48 1.14Q67.89 1.14 65.78 0.46L65.78 0.46L65.78 0.46Q63.67-0.23 62.33-1.71ZM74.36-24.85L74.36-24.85L74.36-24.85Q73.70-23.83 73.13-22.09L73.13-22.09L73.13-22.09Q72.56-20.35 71.62-15.70L71.62-15.70L71.62-15.70Q70.68-11.06 70.68-7.75L70.68-7.75L70.68-7.75Q70.68-4.45 71.19-3.48L71.19-3.48L71.19-3.48Q71.71-2.51 72.62-2.51L72.62-2.51L72.62-2.51Q74.44-2.51 75.78-4.25L75.78-4.25L75.78-4.25Q77.12-5.99 77.63-9.06L77.63-9.06L80.66-25.76L80.66-25.76Q79.46-26.79 78.06-26.79L78.06-26.79L78.06-26.79Q76.66-26.79 75.84-26.33L75.84-26.33L75.84-26.33Q75.01-25.88 74.36-24.85ZM117.88-33.06L117.88-33.06L117.88-33.06Q118.67-34.43 118.67-35.91L118.67-35.91L118.67-35.91Q118.67-38.53 117.08-38.53L117.08-38.53L117.08-38.53Q114.63-38.53 113.60-33.52L113.60-33.52L112.75-29.07L117.93-29.07L117.59-26.51L112.23-26.51L107.10 0L95.59 1.14L101.06-26.51L97.01-26.51L97.53-29.07L101.52-29.07L102.71-33.57L102.71-33.57Q103.74-37.73 108.13-39.67L108.13-39.67L108.13-39.67Q111.32-41.04 116.68-41.04L116.68-41.04L116.68-41.04Q122.04-41.04 124.43-39.67L124.43-39.67L124.43-39.67Q126.82-38.30 126.82-36.48L126.82-36.48L126.82-36.48Q126.82-34.66 125.40-33.52L125.40-33.52L125.40-33.52Q123.97-32.38 122.38-32.38L122.38-32.38L122.38-32.38Q119.24-32.38 117.88-33.06ZM139.65-33.06L139.65-33.06L139.65-33.06Q140.45-34.43 140.45-35.91L140.45-35.91L140.45-35.91Q140.45-38.53 138.85-38.53L138.85-38.53L138.85-38.53Q136.40-38.53 135.38-33.52L135.38-33.52L134.52-29.07L139.71-29.07L139.37-26.51L134.01-26.51L128.88 0L117.36 1.14L122.83-26.51L118.79-26.51L119.30-29.07L123.29-29.07L124.49-33.57L124.49-33.57Q125.51-37.73 129.90-39.67L129.90-39.67L129.90-39.67Q133.09-41.04 138.45-41.04L138.45-41.04L138.45-41.04Q143.81-41.04 146.20-39.67L146.20-39.67L146.20-39.67Q148.60-38.30 148.60-36.48L148.60-36.48L148.60-36.48Q148.60-34.66 147.17-33.52L147.17-33.52L147.17-33.52Q145.75-32.38 144.15-32.38L144.15-32.38L144.15-32.38Q141.02-32.38 139.65-33.06ZM157.78-3.14L157.78-3.14L157.78-3.14Q156.01 1.14 150.37 1.14L150.37 1.14L150.37 1.14Q147.46 1.14 145.63-0.85L145.63-0.85L145.63-0.85Q144.10-2.62 144.10-4.39L144.10-4.39L144.10-4.39Q144.10-9.01 146.20-18.01L146.20-18.01L148.31-29.07L159.88-30.21L156.41-12.20L156.41-12.20Q155.44-7.98 155.44-6.50L155.44-6.50L155.44-6.50Q155.44-3.25 157.78-3.14ZM149.34-36.99L149.34-36.99L149.34-36.99Q149.34-39.22 151.19-40.41L151.19-40.41L151.19-40.41Q153.04-41.61 155.72-41.61L155.72-41.61L155.72-41.61Q158.40-41.61 160.03-40.41L160.03-40.41L160.03-40.41Q161.65-39.22 161.65-36.99L161.65-36.99L161.65-36.99Q161.65-34.77 159.86-33.63L159.86-33.63L159.86-33.63Q158.06-32.49 155.38-32.49L155.38-32.49L155.38-32.49Q152.70-32.49 151.02-33.63L151.02-33.63L151.02-33.63Q149.34-34.77 149.34-36.99ZM190.61-23.71L190.61-23.71L190.61-23.71Q190.61-21.32 188.61-19.84L188.61-19.84L188.61-19.84Q186.62-18.35 183.37-18.35L183.37-18.35L183.37-18.35Q182.00-18.35 181.20-18.75L181.20-18.75L181.20-18.75Q181.83-20.23 182.03-22.09L182.03-22.09L182.03-22.09Q182.23-23.94 182.23-24.45L182.23-24.45L182.23-24.45Q182.23-26.85 180.58-26.85L180.58-26.85L180.58-26.85Q179.44-26.85 178.15-25.42L178.15-25.42L178.15-25.42Q176.87-24.00 175.79-21.77L175.79-21.77L175.79-21.77Q173.39-16.64 173.39-11.46L173.39-11.46L173.39-11.46Q173.39-8.61 174.48-7.32L174.48-7.32L174.48-7.32Q175.56-6.04 177.95-6.04L177.95-6.04L177.95-6.04Q181.26-6.04 183.88-8.78L183.88-8.78L183.88-8.78Q184.62-9.63 185.02-10.60L185.02-10.60L185.02-10.60Q187.19-9.46 187.19-6.33L187.19-6.33L187.19-6.33Q187.19-3.14 183.65-1.03L183.65-1.03L183.65-1.03Q180.01 1.14 174.19 1.14L174.19 1.14L174.19 1.14Q162.62 1.14 162.62-11.12L162.62-11.12L162.62-11.12Q162.62-20.06 167.69-25.19L167.69-25.19L167.69-25.19Q172.60-30.21 181.60-30.21L181.60-30.21L181.60-30.21Q190.61-30.21 190.61-23.71ZM215.57 0L203.38 0L210.33-37.45L210.33-37.45Q215.97-38.08 224.21-38.08L224.21-38.08L224.21-38.08Q232.45-38.08 236.26-35.68L236.26-35.68L236.26-35.68Q240.08-33.29 240.08-28.47L240.08-28.47L240.08-28.47Q240.08-23.66 237.60-20.63L237.60-20.63L237.60-20.63Q235.13-17.61 230.85-16.64L230.85-16.64L230.85-16.64Q231.82-11.91 234.04-8.09L234.04-8.09L234.04-8.09Q236.09-4.50 238.49-3.36L238.49-3.36L238.49-3.36Q237.63-0.97 235.89 0.09L235.89 0.09L235.89 0.09Q234.16 1.14 231.68 1.14L231.68 1.14L231.68 1.14Q229.20 1.14 227.26-0.31L227.26-0.31L227.26-0.31Q225.32-1.77 223.78-4.45L223.78-4.45L223.78-4.45Q220.53-10.26 220.19-19.44L220.19-19.44L220.59-19.44L220.59-19.44Q224.81-19.55 226.92-21.75L226.92-21.75L226.92-21.75Q229.03-23.94 229.03-28.56L229.03-28.56L229.03-28.56Q229.03-34.31 224.18-34.54L224.18-34.54L222.93-34.54L222.93-34.54Q222.41-34.54 222.13-34.48L222.13-34.48L215.57 0ZM261.00-2.39L261.00-2.39L261.00-2.39Q258.27 1.14 251.48 1.14L251.48 1.14L251.48 1.14Q247.95 1.14 245.38-1.00L245.38-1.00L245.38-1.00Q242.82-3.14 242.82-6.21L242.82-6.21L242.82-6.21Q242.82-7.92 242.99-8.78L242.99-8.78L246.81-29.07L258.38-30.21L254.22-8.21L254.22-8.21Q253.99-6.95 253.99-6.21L253.99-6.21L253.99-6.21Q253.99-2.91 255.99-2.91L255.99-2.91L255.99-2.91Q258.21-2.91 259.81-5.93L259.81-5.93L259.81-5.93Q260.32-6.90 260.55-8.15L260.55-8.15L264.59-29.07L275.82-30.21L271.61-7.98L271.61-7.98Q271.43-7.13 271.43-6.21L271.43-6.21L271.43-6.21Q271.43-5.30 271.95-4.30L271.95-4.30L271.95-4.30Q272.46-3.31 274.11-3.08L274.11-3.08L274.11-3.08Q273.77-1.71 272.57-0.80L272.57-0.80L272.57-0.80Q270.07 1.14 267.36 1.14L267.36 1.14L267.36 1.14Q264.65 1.14 263.06 0.17L263.06 0.17L263.06 0.17Q261.46-0.80 261.00-2.39ZM292.52-3.14L292.52-3.14L292.52-3.14Q290.76 1.14 285.11 1.14L285.11 1.14L285.11 1.14Q282.26 1.14 280.44-0.85L280.44-0.85L280.44-0.85Q278.96-2.51 278.96-4.39L278.96-4.39L278.96-4.39Q278.96-8.66 280.95-18.01L280.95-18.01L285.11-39.90L296.69-41.04L291.16-12.20L291.16-12.20Q290.19-7.98 290.19-6.50L290.19-6.50L290.19-6.50Q290.19-3.25 292.52-3.14ZM320.45-9.63L320.45-9.63L320.45-9.63Q321.88-8.66 321.88-6.53L321.88-6.53L321.88-6.53Q321.88-4.39 320.80-3.02L320.80-3.02L320.80-3.02Q319.71-1.65 317.95-0.74L317.95-0.74L317.95-0.74Q314.30 1.14 310.37 1.14L310.37 1.14L310.37 1.14Q306.43 1.14 304.12 0.29L304.12 0.29L304.12 0.29Q301.82-0.57 300.28-2.17L300.28-2.17L300.28-2.17Q297.26-5.19 297.26-10.72L297.26-10.72L297.26-10.72Q297.26-19.32 301.93-24.57L301.93-24.57L301.93-24.57Q306.95-30.21 315.67-30.21L315.67-30.21L315.67-30.21Q321.08-30.21 323.76-27.93L323.76-27.93L323.76-27.93Q325.76-26.22 325.76-23.43L325.76-23.43L325.76-23.43Q325.76-13.40 308.43-13.40L308.43-13.40L308.43-13.40Q308.20-11.91 308.20-10.66L308.20-10.66L308.20-10.66Q308.20-8.04 309.37-7.04L309.37-7.04L309.37-7.04Q310.54-6.04 312.70-6.04L312.70-6.04L312.70-6.04Q314.87-6.04 317.18-7.04L317.18-7.04L317.18-7.04Q319.49-8.04 320.45-9.63ZM308.83-15.85L308.83-15.85L308.83-15.85Q312.87-15.85 315.21-18.35L315.21-18.35L315.21-18.35Q317.55-20.75 317.55-24.57L317.55-24.57L317.55-24.57Q317.55-25.88 317.06-26.59L317.06-26.59L317.06-26.59Q316.58-27.30 315.61-27.30L315.61-27.30L315.61-27.30Q314.64-27.30 313.81-26.93L313.81-26.93L313.81-26.93Q312.99-26.56 312.13-25.31L312.13-25.31L312.13-25.31Q310.02-22.46 308.83-15.85ZM344.74-20.01L344.74-20.01L344.74-20.01Q345.53-22.12 345.53-23.94L345.53-23.94L345.53-23.94Q345.53-27.30 342.80-27.30L342.80-27.30L342.80-27.30Q341.37-27.30 340.20-26.02L340.20-26.02L340.20-26.02Q339.04-24.74 339.04-23.14L339.04-23.14L339.04-23.14Q339.04-22.00 339.95-21.09L339.95-21.09L339.95-21.09Q341.26-19.84 344.62-17.78L344.62-17.78L344.62-17.78Q347.99-15.73 349.27-14.05L349.27-14.05L349.27-14.05Q350.55-12.37 350.55-10.06L350.55-10.06L350.55-10.06Q350.55-7.75 349.44-5.64L349.44-5.64L349.44-5.64Q348.33-3.53 346.33-2.05L346.33-2.05L346.33-2.05Q342.06 1.14 335.22 1.14L335.22 1.14L335.22 1.14Q331.51 1.14 328.66-0.80L328.66-0.80L328.66-0.80Q325.81-2.68 325.81-4.90L325.81-4.90L325.81-4.90Q325.81-7.13 327.44-8.44L327.44-8.44L327.44-8.44Q329.06-9.75 331.46-9.75L331.46-9.75L331.46-9.75Q333.85-9.75 335.33-8.84L335.33-8.84L335.33-8.84Q334.59-6.95 334.59-5.70L334.59-5.70L334.59-5.70Q334.59-1.94 337.78-1.94L337.78-1.94L337.78-1.94Q339.15-1.94 340.06-2.79L340.06-2.79L340.06-2.79Q340.97-3.65 340.97-5.13L340.97-5.13L340.97-5.13Q340.97-8.04 336.07-11.12L336.07-11.12L336.07-11.12Q332.08-13.74 331.17-14.76L331.17-14.76L331.17-14.76Q329.63-16.59 329.63-18.87L329.63-18.87L329.63-18.87Q329.63-21.15 330.71-23.31L330.71-23.31L330.71-23.31Q331.80-25.48 333.79-27.02L333.79-27.02L333.79-27.02Q337.95-30.21 345.19-30.21L345.19-30.21L345.19-30.21Q348.90-30.21 351.09-28.73L351.09-28.73L351.09-28.73Q353.29-27.25 353.29-24.74L353.29-24.74L353.29-24.74Q353.29-22.23 351.78-20.80L351.78-20.80L351.78-20.80Q350.27-19.38 347.53-19.38L347.53-19.38L347.53-19.38Q345.65-19.38 344.74-20.01Z" fill="none" stroke="#fff" stroke-width="2.1" data-darkreader-inline-stroke="" style="--darkreader-inline-stroke: var(--darkreader-text-ffffff, #e8e6e3);"></path></g></g></g><style>text {
  font-size: 64px;
  font-family: Arial Black;
  dominant-baseline: central;
  text-anchor: middle;
}</style><style class="darkreader darkreader--sync" media="screen"></style></svg>