<svg version="1.1" xmlns="http://www.w3.org/2000/svg" xml:space="preserve" style="shape-rendering: geometricPrecision;
text-rendering: optimizeLegibility; fill-rule:evenodd; clip-rule:evenodd;" role="img" width="140px" viewBox="0 0 75000 75000"><title>5.16.1</title><g fill="#FFF" stroke-width="800" stroke="gray" data-darkreader-inline-stroke="" style="--darkreader-inline-stroke: var(--darkreader-text-808080, #988f81); --darkreader-inline-fill: var(--darkreader-background-ffffff, #181a1b);" data-darkreader-inline-fill=""><rect x="2500" y="2500" rx="4500" ry="4500" width="70000" height="70000"></rect></g><g fill="#0177D9" class="blue_layer" style="fill-rule: evenodd; clip-rule: nonzero; --darkreader-inline-fill: var(--darkreader-background-0177d9, #015fae);" data-darkreader-inline-fill=""><rect x="4500" y="4500" width="66000" height="66000" rx="2500" ry="2500"></rect>
 <path d="M38626 8065l28773 49826c537,845 -58,2030 -1101,2030 -19198,4 -38397,-2 -57595,-2 -995,0 -1631,-1127 -1126,-1989l28807 -49877c508,-842 1742,-836 2242,12z" fill="#FFF" data-darkreader-inline-fill="" style="--darkreader-inline-fill: var(--darkreader-background-ffffff, #181a1b);"></path></g><g fill="#000" stroke-width="0.8mm" stroke="#000" class="black_layer" style="shape-rendering: geometricprecision; --darkreader-inline-stroke: var(--darkreader-text-000000, #e8e6e3); --darkreader-inline-fill: var(--darkreader-background-000000, #000000);" data-darkreader-inline-stroke="" data-darkreader-inline-fill=""><symbol id="crosswalk"><path d="M9267 35713l-4534 0 -4533 6599 6800 0 2267 -6599zm23778 3187c1989,2907 5057,113 3620,-1974l-8390 -13309 -3137 2294 7907 12989zm-17495 -11393c44,-181 146,-341 290,-457l5893 -5381 -750 -11425c0,-265 123,-514 334,-676l3816 -2693c282,-214 1132,-231 1432,-44l6772 5572c832,685 1017,1415 1017,1706l0 6713c-35,2309 -3284,2498 -3284,-193l6 -4943c0,-305 -164,-941 -428,-1093l-3731 -2946 519 10700 -7969 6422c-161,121 -272,293 -317,489l-3653 10854c-564,2200 -4343,1380 -3862,-590l3915 -12015zm4478 -11527l0 4338 -3389 2657c-1879,1104 -3893,-1478 -2148,-2953l5537 -4042zm979 -14672c686,-782 1662,-1247 2690,-1088 1028,158 1887,866 2238,1847 350,981 135,2073 -560,2848 -814,1016 -1961,1665 -3209,2034 -920,273 -1999,-30 -2317,-935 -573,-1633 19,-3405 1158,-4706zm17726 34405l2267 6599 6800 0 -4533 -6599 -4534 0zm-12466 0l-4534 0 -1133 6599 6800 0 -1133 -6599z"></path></symbol><g transform="scale(-1,1) translate(-75000, 0)"><use xlink:href="#crosswalk" x="13500" y="15000"></use></g></g></svg>